{"title":"Punjab 1984 (2014) DVDRip - XviD - 1CD Esub [DDR-ExclusivE]","uid":11379027,"size":730653469,"categoryP":"video","categoryS":"movies","magnet":"?xt=urn:btih:70ace5c85bee0c16af88e9de252ee86f29c78db5&amp;dn=Punjab+1984+%282014%29+DVDRip+-+XviD+-+1CD+Esub+%5BDDR-ExclusivE%5D&amp;tr=udp%3A%2F%2Ftracker.openbittorrent.com%3A80&amp;tr=udp%3A%2F%2Fopen.demonii.com%3A1337&amp;tr=udp%3A%2F%2Ftracker.coppersurfer.tk%3A6969&amp;tr=udp%3A%2F%2Fexodus.desync.com%3A6969","seeders":11,"leechers":1,"uploader":"SaM","files":-1,"time":1415146702,"description":"Movie Info\nMovie Name : Punjab 1984\nStarring : Diljit Dosanjh, Sonam Bajwa, Arjuna Bhalla, Kiron Kher, Rana Ranbir\nDirected : Anurag Singh\nProducer : White Hill Production &amp; Basic Brothers Production\nIMDB : http://www.imdb.com/title/tt3607198/\nMovie Release Date : 27 June 2014\nRipper : AnMoL\nSource : DVD9 My Own Collection\nAudio : Punjabi\nSubtitle : English\nTech Info\nFormat : AVI\nFormat/Info : Audio Video Interleave\nFile size : 697 MiB\nDuration : 2h 39mn\nOverall bit rate : 612 Kbps\n\nVideo\nID : 0\nFormat : MPEG-4 Visual\nFormat profile : Advanced Simple@L5\nFormat settings, BVOP : 3\nFormat settings, QPel : No\nCodec ID/Hint : XviD\nDuration : 2h 39mn\nBit rate : 523 Kbps\nWidth : 608 pixels\nHeight : 256 pixels\nDisplay aspect ratio : 2.40:1\nFrame rate : 23.976 fps\nColor space : YUV\nChroma subsampling : 4:2:0\nBit depth : 8 bits\nScan type : Progressive\nCompression mode : Lossy\nBits/(Pixel*Frame) : 0.140\nStream size : 595 MiB (85%)\n\nAudio\nID : 1\nFormat : MPEG Audio\nFormat version : Version 1\nFormat profile : Layer 3\nMode : Joint stereo\nMode extension : MS Stereo\nCodec ID : 55\nCodec ID/Hint : MP3\nDuration : 2h 39mn\nBit rate mode : Constant\nBit rate : 80.0 Kbps\nChannel(s) : 2 channels\nSampling rate : 32.0 KHz\nCompression mode : Lossy\nStream size : 91.1 MiB (13%)\nScreen Shot\n &lt;a href=&quot;\nhttp://i.imgur.com/BqpItei.png&quot; rel=&quot;nofollow&quot; target=&quot;_NEW&quot;&gt;\nhttp://i.imgur.com/BqpItei.png&lt;/a&gt;\n &lt;a href=&quot;\nhttp://i.imgur.com/hReFIBD.png&quot; rel=&quot;nofollow&quot; target=&quot;_NEW&quot;&gt;\nhttp://i.imgur.com/hReFIBD.png&lt;/a&gt;\n &lt;a href=&quot;\nhttp://i.imgur.com/4CxTlFX.png&quot; rel=&quot;nofollow&quot; target=&quot;_NEW&quot;&gt;\nhttp://i.imgur.com/4CxTlFX.png&lt;/a&gt;\n &lt;a href=&quot;\nhttp://i.imgur.com/KgaRkow.png&quot; rel=&quot;nofollow&quot; target=&quot;_NEW&quot;&gt;\nhttp://i.imgur.com/KgaRkow.png&lt;/a&gt;\n &lt;a href=&quot;\nhttp://i.imgur.com/T2BLKh3.png&quot; rel=&quot;nofollow&quot; target=&quot;_NEW&quot;&gt;\nhttp://i.imgur.com/T2BLKh3.png&lt;/a&gt;","torrent":{"xt":"urn:btih:70ace5c85bee0c16af88e9de252ee86f29c78db5","amp;dn":"Punjab+1984+%282014%29+DVDRip+-+XviD+-+1CD+Esub+%5BDDR-ExclusivE%5D","amp;tr":["udp%3A%2F%2Ftracker.openbittorrent.com%3A80","udp%3A%2F%2Fopen.demonii.com%3A1337","udp%3A%2F%2Ftracker.coppersurfer.tk%3A6969","udp%3A%2F%2Fexodus.desync.com%3A6969"],"infoHash":"70ace5c85bee0c16af88e9de252ee86f29c78db5","infoHashBuffer":{"type":"Buffer","data":[112,172,229,200,91,238,12,22,175,136,233,222,37,46,232,111,41,199,141,181]},"announce":[],"urlList":[]}}